<svg xmlns="http://www.w3.org/2000/svg" width="225.36" height="29" viewBox="0 0 225.36 29"><g fill="#69a38e" color="#69a38e" transform="translate(0, 0) scale(0.29)"><svg width="100" height="100" x="0" y="0" viewBox="0 0 100 100"><g><path fill="currentColor" d="M49.998,92.669c-5.508,0-10.857-2.647-16.034-5.211c-4.912-2.435-9.553-4.729-13.966-4.729H9.98v-5h10.018 c5.583,0,10.975,2.668,16.186,5.25c4.875,2.412,9.479,4.69,13.814,4.69c4.311,0,8.859-2.267,13.679-4.662 c5.214-2.596,10.604-5.278,16.273-5.278c0.021,0,0.036,0,0.056,0h9.999v5H79.998c-0.016,0-0.025,0-0.041,0 c-4.501,0-9.143,2.311-14.055,4.754C60.779,90.034,55.482,92.669,49.998,92.669z"/></g><g><path d="M50,6.613c-17.921,0-32.5,14.579-32.5,32.499c0,15.58,11.105,29.003,26.406,31.919l0.594,0.113v-5.09l-0.393-0.086 C31.587,63.225,22.5,51.93,22.5,39.112c0-15.163,12.337-27.499,27.5-27.499s27.5,12.336,27.5,27.499 c0,12.818-9.087,24.113-21.607,26.857L55.5,66.057v5.088l0.594-0.112C71.395,68.115,82.5,54.691,82.5,39.112 C82.5,21.192,67.921,6.613,50,6.613z"/><polygon points="71.96 52.812 71.96 47.812 66.096 47.812 71.96 41.991 71.96 34.925 62.525 44.308 62.525 35.623 57.525 35.623 57.525 49.271 52.5 54.257 52.5 35.627 47.5 35.627 47.5 54.257 42.475 49.271 42.475 35.623 37.475 35.623 37.475 44.307 28.039 34.924 28.039 41.991 33.905 47.812 28.039 47.812 28.039 52.812 38.944 52.812 47.5 61.3 47.5 83.162 52.5 83.162 52.5 61.3 61.055 52.812"/></g><g><path fill="currentColor" d="M30.919,70.202c-1.584-0.694-3.194-1.297-4.843-1.728c-1.729-0.412-3.577-0.649-5.553-0.688H9.98v5h11.018 c4.386,0,9.396,1.662,14.041,4.084c2.736,1.428,7.786,4.515,7.786,4.515C40.002,76.909,36.141,72.723,30.919,70.202z"/></g><g><path fill="currentColor" d="M57.175,81.387c0,0,5.05-3.087,7.786-4.515c4.646-2.42,9.655-4.084,14.041-4.084H90.02v-5H79.477 c-1.976,0.037-3.824,0.274-5.553,0.688c-1.646,0.432-3.259,1.03-4.843,1.727C63.859,72.723,59.998,76.909,57.175,81.387z"/></g></svg></g><line x1="41" x2="41" y1="1" y2="28" stroke="#295c3c" stroke-linecap="round"/><path fill="#295c3c" fill-rule="nonzero" d="M0 20.33L0 4.73L3.62 4.73Q5.50 4.73 6.47 5.62Q7.44 6.50 7.44 8.09L7.44 8.09L7.44 9.53Q7.44 11.57 5.74 12.14L5.74 12.14Q7.68 12.67 7.68 14.81L7.68 14.81L7.68 16.97Q7.68 18.58 6.72 19.45Q5.76 20.33 3.86 20.33L3.86 20.33L0 20.33ZM6 16.97L6 16.97L6 14.81Q6 14.04 5.42 13.40Q4.85 12.77 3.86 12.77L3.86 12.77L1.68 12.77L1.68 18.89L3.86 18.89Q4.87 18.89 5.44 18.32Q6 17.76 6 16.97ZM5.76 9.53L5.76 9.53L5.76 8.09Q5.76 7.32 5.20 6.74Q4.63 6.17 3.62 6.17L3.62 6.17L1.68 6.17L1.68 11.57L3.62 11.57Q4.63 11.57 5.20 10.94Q5.76 10.32 5.76 9.53ZM13.80 4.73L13.80 20.33L12.12 20.33L12.12 4.73L13.80 4.73ZM18.24 17.57L18.24 4.73L23.52 4.73L23.52 6.17L19.92 6.17L19.92 17.66Q19.92 18.34 20.27 18.79Q20.62 19.25 21.25 19.25Q21.89 19.25 22.22 18.80Q22.56 18.36 22.56 17.66L22.56 17.66L22.56 14.81L24.24 14.81L24.24 17.57Q24.24 19.08 23.44 19.88Q22.63 20.69 21.26 20.69Q19.90 20.69 19.07 19.88Q18.24 19.08 18.24 17.57L18.24 17.57ZM35.04 7.73L35.04 20.33L34.32 20.33L33.70 18.79Q33.19 19.66 32.38 20.17Q31.56 20.69 30.58 20.69L30.58 20.69Q27.12 20.69 27.12 17.33L27.12 17.33L27.12 14.93Q27.12 11.57 30.58 11.57L30.58 11.57L33.36 11.57L33.36 7.63Q33.36 6.77 32.81 6.29Q32.26 5.81 31.18 5.81L31.18 5.81Q29.04 5.81 29.04 7.63L29.04 7.63L29.04 9.05L27.36 9.05L27.36 7.73Q27.36 6.12 28.31 5.24Q29.26 4.37 31.18 4.37Q33.10 4.37 34.07 5.24Q35.04 6.12 35.04 7.73L35.04 7.73ZM33.36 16.92L33.36 13.01L30.58 13.01Q29.57 13.01 29.18 13.51Q28.80 14.02 28.80 14.93L28.80 14.93L28.80 17.33Q28.80 18.24 29.18 18.74Q29.57 19.25 30.58 19.25Q31.58 19.25 32.45 18.47Q33.31 17.69 33.36 16.92L33.36 16.92ZM32.76 0L34.06 1.30L33.14 2.21L30.43 3.58L29.81 2.95L32.76 0ZM45.48 17.33L45.48 17.33L45.48 16.01L47.16 16.01L47.16 17.33Q47.16 18.94 46.18 19.81Q45.19 20.69 43.22 20.69Q41.26 20.69 40.25 19.81Q39.24 18.94 39.24 17.33L39.24 17.33L39.24 7.73Q39.24 6.12 40.22 5.24Q41.21 4.37 43.18 4.37Q45.14 4.37 46.15 5.24Q47.16 6.12 47.16 7.73L47.16 7.73L47.16 10.01L45.48 10.01L45.48 7.73Q45.48 5.81 43.20 5.81Q40.92 5.81 40.92 7.73L40.92 7.73L40.92 17.33Q40.92 19.25 43.20 19.25Q45.48 19.25 45.48 17.33ZM59.16 7.73L59.16 7.73L59.16 17.33Q59.16 18.94 58.14 19.81Q57.12 20.69 55.09 20.69Q53.06 20.69 52.03 19.81Q51 18.94 51 17.33L51 17.33L51 7.73Q51 6.12 52.02 5.24Q53.04 4.37 55.07 4.37Q57.10 4.37 58.13 5.24Q59.16 6.12 59.16 7.73ZM57.48 17.33L57.48 17.33L57.48 7.73Q57.48 5.81 55.08 5.81Q52.68 5.81 52.68 7.73L52.68 7.73L52.68 17.33Q52.68 19.25 55.08 19.25Q57.48 19.25 57.48 17.33ZM65.28 9.36L65.28 20.33L63.60 20.33L63.60 4.73L64.32 4.73L65.02 6.50Q65.78 4.37 67.46 4.37L67.46 4.37Q70.32 4.37 70.32 7.49L70.32 7.49L70.32 9.05L68.71 9.05L68.71 7.39Q68.71 5.81 67.39 5.81L67.39 5.81Q66.60 5.81 65.94 6.72Q65.28 7.63 65.28 9.36L65.28 9.36ZM80.64 7.73L80.64 20.33L79.92 20.33L79.30 18.79Q78.79 19.66 77.98 20.17Q77.16 20.69 76.18 20.69L76.18 20.69Q72.72 20.69 72.72 17.33L72.72 17.33L72.72 14.93Q72.72 11.57 76.18 11.57L76.18 11.57L78.96 11.57L78.96 7.63Q78.96 6.77 78.41 6.29Q77.86 5.81 76.78 5.81L76.78 5.81Q74.64 5.81 74.64 7.63L74.64 7.63L74.64 9.05L72.96 9.05L72.96 7.73Q72.96 6.12 73.91 5.24Q74.86 4.37 76.78 4.37Q78.70 4.37 79.67 5.24Q80.64 6.12 80.64 7.73L80.64 7.73ZM78.96 16.92L78.96 13.01L76.18 13.01Q75.17 13.01 74.78 13.51Q74.40 14.02 74.40 14.93L74.40 14.93L74.40 17.33Q74.40 18.24 74.78 18.74Q75.17 19.25 76.18 19.25Q77.18 19.25 78.05 18.47Q78.91 17.69 78.96 16.92L78.96 16.92ZM90.72 20.33L90.72 4.73L94.34 4.73Q96.22 4.73 97.19 5.62Q98.16 6.50 98.16 8.09L98.16 8.09L98.16 9.53Q98.16 11.57 96.46 12.14L96.46 12.14Q98.40 12.67 98.40 14.81L98.40 14.81L98.40 16.97Q98.40 18.58 97.44 19.45Q96.48 20.33 94.58 20.33L94.58 20.33L90.72 20.33ZM96.72 16.97L96.72 16.97L96.72 14.81Q96.72 14.04 96.14 13.40Q95.57 12.77 94.58 12.77L94.58 12.77L92.40 12.77L92.40 18.89L94.58 18.89Q95.59 18.89 96.16 18.32Q96.72 17.76 96.72 16.97ZM96.48 9.53L96.48 9.53L96.48 8.09Q96.48 7.32 95.92 6.74Q95.35 6.17 94.34 6.17L94.34 6.17L92.40 6.17L92.40 11.57L94.34 11.57Q95.35 11.57 95.92 10.94Q96.48 10.32 96.48 9.53ZM110.64 7.73L110.64 7.73L110.64 17.33Q110.64 18.94 109.62 19.81Q108.60 20.69 106.57 20.69Q104.54 20.69 103.51 19.81Q102.48 18.94 102.48 17.33L102.48 17.33L102.48 7.73Q102.48 6.12 103.50 5.24Q104.52 4.37 106.55 4.37Q108.58 4.37 109.61 5.24Q110.64 6.12 110.64 7.73ZM108.96 17.33L108.96 17.33L108.96 7.73Q108.96 5.81 106.56 5.81Q104.16 5.81 104.16 7.73L104.16 7.73L104.16 17.33Q104.16 19.25 106.56 19.25Q108.96 19.25 108.96 17.33ZM114.72 17.57L114.72 4.73L120 4.73L120 6.17L116.40 6.17L116.40 17.66Q116.40 18.34 116.75 18.79Q117.10 19.25 117.73 19.25Q118.37 19.25 118.70 18.80Q119.04 18.36 119.04 17.66L119.04 17.66L119.04 14.81L120.72 14.81L120.72 17.57Q120.72 19.08 119.92 19.88Q119.11 20.69 117.74 20.69Q116.38 20.69 115.55 19.88Q114.72 19.08 114.72 17.57L114.72 17.57ZM131.52 7.73L131.52 20.33L130.80 20.33L130.18 18.79Q129.67 19.66 128.86 20.17Q128.04 20.69 127.06 20.69L127.06 20.69Q123.60 20.69 123.60 17.33L123.60 17.33L123.60 14.93Q123.60 11.57 127.06 11.57L127.06 11.57L129.84 11.57L129.84 7.63Q129.84 6.77 129.29 6.29Q128.74 5.81 127.66 5.81L127.66 5.81Q125.52 5.81 125.52 7.63L125.52 7.63L125.52 9.05L123.84 9.05L123.84 7.73Q123.84 6.12 124.79 5.24Q125.74 4.37 127.66 4.37Q129.58 4.37 130.55 5.24Q131.52 6.12 131.52 7.73L131.52 7.73ZM129.84 16.92L129.84 13.01L127.06 13.01Q126.05 13.01 125.66 13.51Q125.28 14.02 125.28 14.93L125.28 14.93L125.28 17.33Q125.28 18.24 125.66 18.74Q126.05 19.25 127.06 19.25Q128.06 19.25 128.93 18.47Q129.79 17.69 129.84 16.92L129.84 16.92ZM129.24 0L130.54 1.30L129.62 2.21L126.91 3.58L126.29 2.95L129.24 0ZM137.76 8.21L137.76 20.33L136.08 20.33L136.08 4.73L136.80 4.73L137.40 6.29Q138.55 4.37 140.59 4.37L140.59 4.37Q144.12 4.37 144.12 7.73L144.12 7.73L144.12 20.33L142.44 20.33L142.44 7.73Q142.44 6.82 142.04 6.31Q141.65 5.81 140.59 5.81Q139.54 5.81 138.65 6.62Q137.76 7.44 137.76 8.21L137.76 8.21ZM150.36 4.73L150.36 20.33L148.68 20.33L148.68 4.73L150.36 4.73ZM161.04 17.33L161.04 17.33L161.04 16.01L162.72 16.01L162.72 17.33Q162.72 18.94 161.74 19.81Q160.75 20.69 158.78 20.69Q156.82 20.69 155.81 19.81Q154.80 18.94 154.80 17.33L154.80 17.33L154.80 7.73Q154.80 6.12 155.78 5.24Q156.77 4.37 158.74 4.37Q160.70 4.37 161.71 5.24Q162.72 6.12 162.72 7.73L162.72 7.73L162.72 10.01L161.04 10.01L161.04 7.73Q161.04 5.81 158.76 5.81Q156.48 5.81 156.48 7.73L156.48 7.73L156.48 17.33Q156.48 19.25 158.76 19.25Q161.04 19.25 161.04 17.33ZM174.36 7.73L174.36 20.33L173.64 20.33L173.02 18.79Q172.51 19.66 171.70 20.17Q170.88 20.69 169.90 20.69L169.90 20.69Q166.44 20.69 166.44 17.33L166.44 17.33L166.44 14.93Q166.44 11.57 169.90 11.57L169.90 11.57L172.68 11.57L172.68 7.63Q172.68 6.77 172.13 6.29Q171.58 5.81 170.50 5.81L170.50 5.81Q168.36 5.81 168.36 7.63L168.36 7.63L168.36 9.05L166.68 9.05L166.68 7.73Q166.68 6.12 167.63 5.24Q168.58 4.37 170.50 4.37Q172.42 4.37 173.39 5.24Q174.36 6.12 174.36 7.73L174.36 7.73ZM172.68 16.92L172.68 13.01L169.90 13.01Q168.89 13.01 168.50 13.51Q168.12 14.02 168.12 14.93L168.12 14.93L168.12 17.33Q168.12 18.24 168.50 18.74Q168.89 19.25 169.90 19.25Q170.90 19.25 171.77 18.47Q172.63 17.69 172.68 16.92L172.68 16.92Z" transform="translate(51, 4.336)"/></svg>